<svg width="55" height="59" viewBox="0 0 55 59" fill="none" xmlns="http://www.w3.org/2000/svg">
<path d="M26.6582 40.4522C26.8797 40.6532 27.1899 40.7738 27.5 40.7738C27.8101 40.7738 28.1203 40.6612 28.3418 40.4522L37.8671 31.8078C38.3367 31.3817 38.3367 30.6981 37.8671 30.272C37.3975 29.8458 36.6443 29.8458 36.1747 30.272L28.6962 37.0588V11.0856C28.6962 10.4825 28.1646 10 27.5 10C26.8354 10 26.3038 10.4825 26.3038 11.0856V37.0588L18.8253 30.272C18.3557 29.8458 17.6025 29.8458 17.1329 30.272C16.6633 30.6981 16.6633 31.3817 17.1329 31.8078L26.6582 40.4522ZM11.1962 46.8289C10.5316 46.8289 10 47.3113 10 47.9144C10 48.5175 10.5316 49 11.1962 49H43.8038C44.4684 49 45 48.5175 45 47.9144C45 47.3113 44.4684 46.8289 43.8038 46.8289H11.1962Z" fill="white"/>
<path d="M26.6582 40.4522C26.8797 40.6532 27.1899 40.7738 27.5 40.7738C27.8101 40.7738 28.1203 40.6612 28.3418 40.4522L37.8671 31.8078C38.3367 31.3817 38.3367 30.6981 37.8671 30.272C37.3975 29.8458 36.6443 29.8458 36.1747 30.272L28.6962 37.0588V11.0856C28.6962 10.4825 28.1646 10 27.5 10C26.8354 10 26.3038 10.4825 26.3038 11.0856V37.0588L18.8253 30.272C18.3557 29.8458 17.6025 29.8458 17.1329 30.272C16.6633 30.6981 16.6633 31.3817 17.1329 31.8078L26.6582 40.4522ZM11.1962 46.8289C10.5316 46.8289 10 47.3113 10 47.9144C10 48.5175 10.5316 49 11.1962 49H43.8038C44.4684 49 45 48.5175 45 47.9144C45 47.3113 44.4684 46.8289 43.8038 46.8289H11.1962Z" stroke="white"/>
</svg>
